<?xml version="1.0" encoding="UTF-8"?>
<svg xmlns="http://www.w3.org/2000/svg" xmlns:xlink="http://www.w3.org/1999/xlink" width="385.2pt" height="121.9201pt" viewBox="0 0 385.2 121.9201" version="1.1">
<defs>
<clipPath id="clip1">
  <path d="M 0 25 L 250 25 L 250 121.921875 L 0 121.921875 Z M 0 25 "/>
</clipPath>
</defs>
<g id="surface1">
<g clip-path="url(#clip1)" clip-rule="nonzero">
<path style=" stroke:none;fill-rule:nonzero;fill:rgb(97.254944%,100%,7.450867%);fill-opacity:1;" d="M 56.59375 25.519531 L 242.429688 25.519531 C 248.03125 25.519531 251.078125 30.398438 247.464844 33.585938 L 208.152344 68.324219 C 204.664062 71.410156 204.664062 75.917969 208.152344 79 L 247.464844 113.738281 C 251.078125 116.929688 248.03125 121.804688 242.429688 121.804688 L 56.59375 121.804688 C 53.3125 121.804688 50.203125 120.730469 48.089844 118.863281 L 2.976562 79 C -0.511719 75.917969 -0.511719 71.410156 2.976562 68.324219 L 48.089844 28.464844 C 50.203125 26.597656 53.3125 25.519531 56.59375 25.519531 "/>
</g>
<path style=" stroke:none;fill-rule:nonzero;fill:rgb(97.254944%,100%,7.450867%);fill-opacity:1;" d="M 103.410156 5.699219 C 139.046875 3.371094 174.6875 2.160156 210.324219 1.289062 C 228.144531 0.863281 245.960938 0.578125 263.78125 0.375 L 290.507812 0.152344 L 297.191406 0.125 L 300.53125 0.117188 L 302.269531 0.113281 C 303.203125 0.121094 304.136719 0.15625 305.058594 0.246094 C 308.757812 0.570312 312.3125 1.550781 315.257812 3.042969 C 315.992188 3.417969 316.699219 3.820312 317.347656 4.257812 C 317.683594 4.46875 317.988281 4.699219 318.300781 4.925781 L 318.894531 5.378906 L 321.058594 7.035156 L 338.207031 20.371094 L 355.179688 33.808594 C 360.78125 38.316406 366.429688 42.800781 371.964844 47.34375 L 376.136719 50.742188 L 378.222656 52.445312 L 379.261719 53.292969 C 379.636719 53.601562 379.871094 53.777344 380.472656 54.3125 C 384.707031 57.96875 385.527344 63.039062 382.710938 67.109375 C 382.03125 68.128906 381.136719 69.089844 380.0625 69.945312 C 379.457031 70.441406 379.15625 70.636719 378.769531 70.914062 L 377.640625 71.71875 L 373.121094 74.925781 L 364.050781 81.324219 C 357.988281 85.578125 351.875 89.808594 345.726562 94.015625 C 333.328125 102.378906 320.976562 110.765625 308.023438 118.824219 C 318.035156 109.152344 328.65625 99.816406 339.234375 90.453125 C 344.566406 85.796875 349.941406 81.164062 355.363281 76.558594 L 363.523438 69.660156 L 367.617188 66.21875 L 368.640625 65.359375 C 368.96875 65.082031 369.402344 64.738281 369.460938 64.648438 C 369.765625 64.363281 369.988281 64.054688 370.144531 63.730469 C 370.8125 62.445312 370.304688 60.996094 368.992188 60.089844 L 360.308594 53.738281 C 354.359375 49.421875 348.519531 45.042969 342.636719 40.6875 L 325.152344 27.535156 L 307.84375 14.285156 L 305.699219 12.617188 L 305.214844 12.242188 C 305.148438 12.199219 305.101562 12.148438 305.03125 12.113281 C 304.910156 12.023438 304.773438 11.949219 304.636719 11.875 C 304.074219 11.585938 303.390625 11.382812 302.675781 11.316406 C 302.5 11.292969 302.316406 11.292969 302.136719 11.285156 L 300.53125 11.28125 L 297.191406 11.269531 L 290.507812 11.246094 L 263.78125 11.019531 C 245.960938 10.816406 228.144531 10.53125 210.324219 10.105469 C 174.6875 9.234375 139.046875 8.027344 103.410156 5.699219 "/>
<path style=" stroke:none;fill-rule:nonzero;fill:rgb(0%,0%,0%);fill-opacity:1;" d="M 291.453125 111.585938 L 84.726562 111.585938 C 79.929688 111.585938 77.320312 107.773438 80.414062 105.28125 L 125.691406 68.800781 C 129.515625 65.714844 129.515625 61.207031 125.691406 58.121094 L 80.414062 21.636719 C 77.320312 19.144531 79.929688 15.335938 84.726562 15.335938 L 291.453125 15.335938 C 295.046875 15.335938 298.457031 16.410156 300.773438 18.277344 L 350.21875 58.121094 C 354.046875 61.207031 354.046875 65.714844 350.21875 68.800781 L 300.773438 108.640625 C 298.457031 110.507812 295.046875 111.585938 291.453125 111.585938 "/>
<path style=" stroke:none;fill-rule:nonzero;fill:rgb(100%,100%,100%);fill-opacity:1;" d="M 300.277344 61.519531 C 300.277344 64.480469 299.761719 67.15625 298.722656 69.542969 C 297.6875 71.929688 296.28125 73.976562 294.503906 75.679688 C 292.726562 77.382812 290.652344 78.6875 288.285156 79.59375 C 285.914062 80.503906 283.398438 80.957031 280.730469 80.957031 C 278.621094 80.957031 276.742188 80.753906 275.09375 80.34375 C 273.445312 79.9375 272.03125 79.476562 270.84375 78.957031 C 269.476562 78.363281 268.292969 77.714844 267.292969 77.011719 L 273.121094 66.738281 C 273.714844 67.183594 274.363281 67.609375 275.066406 68.015625 C 275.695312 68.3125 276.445312 68.597656 277.316406 68.878906 C 278.1875 69.15625 279.175781 69.292969 280.285156 69.292969 C 281.433594 69.292969 282.488281 69.089844 283.453125 68.683594 C 284.414062 68.277344 285.257812 67.71875 285.980469 67.015625 C 286.699219 66.3125 287.265625 65.488281 287.671875 64.546875 C 288.078125 63.601562 288.285156 62.59375 288.285156 61.519531 C 288.285156 60.445312 288.070312 59.4375 287.644531 58.492188 C 287.21875 57.546875 286.636719 56.726562 285.894531 56.019531 C 285.15625 55.316406 284.285156 54.761719 283.285156 54.355469 C 282.285156 53.949219 281.195312 53.746094 280.007812 53.746094 C 278.824219 53.746094 277.769531 53.890625 276.84375 54.1875 C 275.917969 54.484375 275.140625 54.816406 274.511719 55.1875 C 273.769531 55.59375 273.121094 56.078125 272.566406 56.632812 L 266.738281 46.359375 C 267.734375 45.542969 268.921875 44.824219 270.289062 44.191406 C 271.476562 43.675781 272.902344 43.191406 274.566406 42.75 C 276.234375 42.304688 278.140625 42.082031 280.285156 42.082031 C 283.175781 42.082031 285.839844 42.554688 288.285156 43.5 C 290.726562 44.441406 292.835938 45.765625 294.613281 47.46875 C 296.390625 49.171875 297.78125 51.21875 298.777344 53.605469 C 299.777344 55.992188 300.277344 58.632812 300.277344 61.519531 Z M 265.347656 80.066406 L 250.855469 80.066406 C 249.003906 80.066406 247.308594 79.855469 245.773438 79.429688 C 244.234375 79.003906 242.921875 78.375 241.828125 77.539062 C 240.738281 76.707031 239.886719 75.671875 239.273438 74.429688 C 238.664062 73.191406 238.359375 71.738281 238.359375 70.070312 C 238.359375 68.886719 238.507812 67.878906 238.804688 67.042969 C 239.097656 66.210938 239.414062 65.515625 239.746094 64.960938 C 240.15625 64.296875 240.617188 63.742188 241.136719 63.296875 C 240.320312 62.777344 239.582031 62.113281 238.914062 61.296875 C 238.359375 60.59375 237.851562 59.703125 237.386719 58.632812 C 236.925781 57.558594 236.691406 56.242188 236.691406 54.6875 C 236.691406 52.910156 237.007812 51.300781 237.636719 49.855469 C 238.265625 48.414062 239.164062 47.183594 240.328125 46.164062 C 241.496094 45.144531 242.921875 44.367188 244.605469 43.832031 C 246.289062 43.296875 248.167969 43.027344 250.242188 43.027344 L 265.347656 43.027344 Z M 252.574219 51.746094 C 249.761719 51.746094 248.355469 52.820312 248.355469 54.964844 C 248.355469 57.113281 249.761719 58.1875 252.574219 58.1875 L 253.90625 58.1875 L 253.90625 51.746094 Z M 249.800781 68.792969 C 249.800781 70.496094 250.722656 71.347656 252.574219 71.347656 L 253.90625 71.347656 L 253.90625 66.238281 L 252.574219 66.238281 C 250.722656 66.238281 249.800781 67.089844 249.800781 68.792969 Z M 223.476562 80.066406 L 214.589844 80.066406 L 200.539062 43.027344 L 212.203125 43.027344 L 213.425781 46.359375 L 224.640625 46.359375 L 225.863281 43.027344 L 237.527344 43.027344 Z M 216.535156 54.523438 L 219.035156 61.019531 L 221.53125 54.523438 Z M 203.039062 61.519531 C 203.039062 64.480469 202.519531 67.15625 201.484375 69.542969 C 200.449219 71.929688 199.042969 73.976562 197.265625 75.679688 C 195.488281 77.382812 193.414062 78.6875 191.042969 79.59375 C 188.675781 80.503906 186.15625 80.957031 183.492188 80.957031 C 181.382812 80.957031 179.503906 80.753906 177.855469 80.34375 C 176.207031 79.9375 174.792969 79.476562 173.605469 78.957031 C 172.238281 78.363281 171.050781 77.714844 170.054688 77.011719 L 175.882812 66.738281 C 176.476562 67.183594 177.125 67.609375 177.828125 68.015625 C 178.457031 68.3125 179.207031 68.597656 180.078125 68.878906 C 180.945312 69.15625 181.9375 69.292969 183.046875 69.292969 C 184.195312 69.292969 185.25 69.089844 186.214844 68.683594 C 187.175781 68.277344 188.019531 67.71875 188.738281 67.015625 C 189.460938 66.3125 190.027344 65.488281 190.433594 64.546875 C 190.839844 63.601562 191.042969 62.59375 191.042969 61.519531 C 191.042969 60.445312 190.832031 59.4375 190.40625 58.492188 C 189.980469 57.546875 189.398438 56.726562 188.65625 56.019531 C 187.914062 55.316406 187.046875 54.761719 186.046875 54.355469 C 185.046875 53.949219 183.953125 53.746094 182.769531 53.746094 C 181.585938 53.746094 180.53125 53.890625 179.605469 54.1875 C 178.679688 54.484375 177.902344 54.816406 177.273438 55.1875 C 176.53125 55.59375 175.882812 56.078125 175.328125 56.632812 L 169.496094 46.359375 C 170.496094 45.542969 171.683594 44.824219 173.050781 44.191406 C 174.238281 43.675781 175.660156 43.191406 177.328125 42.75 C 178.992188 42.304688 180.898438 42.082031 183.046875 42.082031 C 185.933594 42.082031 188.601562 42.554688 191.042969 43.5 C 193.488281 44.441406 195.597656 45.765625 197.375 47.46875 C 199.152344 49.171875 200.539062 51.21875 201.539062 53.605469 C 202.539062 55.992188 203.039062 58.632812 203.039062 61.519531 Z M 168.109375 80.066406 L 156.113281 80.066406 L 156.113281 71.515625 L 149.117188 80.066406 L 134.621094 80.066406 L 147.671875 63.128906 L 133.957031 43.027344 L 148.226562 43.027344 L 156.113281 54.464844 L 156.113281 43.027344 L 168.109375 43.027344 Z M 168.109375 80.066406 "/>
<path style=" stroke:none;fill-rule:nonzero;fill:rgb(97.254944%,100%,7.450867%);fill-opacity:1;" d="M 233.996094 96.761719 C 233.996094 95.1875 234.273438 93.761719 234.824219 92.492188 C 235.375 91.21875 236.125 90.128906 237.070312 89.222656 C 238.019531 88.316406 239.121094 87.621094 240.382812 87.140625 C 241.644531 86.65625 242.984375 86.414062 244.40625 86.414062 C 245.527344 86.414062 246.527344 86.523438 247.40625 86.738281 C 248.28125 86.957031 249.035156 87.203125 249.667969 87.480469 C 250.398438 87.792969 251.027344 88.140625 251.558594 88.511719 L 248.457031 93.984375 C 248.140625 93.746094 247.796875 93.519531 247.421875 93.304688 C 247.085938 93.144531 246.6875 92.992188 246.222656 92.84375 C 245.761719 92.695312 245.234375 92.625 244.640625 92.625 C 244.03125 92.625 243.46875 92.730469 242.957031 92.949219 C 242.441406 93.164062 241.996094 93.460938 241.609375 93.835938 C 241.226562 94.210938 240.925781 94.648438 240.707031 95.152344 C 240.492188 95.652344 240.382812 96.191406 240.382812 96.761719 C 240.382812 97.335938 240.496094 97.871094 240.722656 98.375 C 240.949219 98.878906 241.261719 99.316406 241.65625 99.691406 C 242.050781 100.0625 242.511719 100.359375 243.042969 100.578125 C 243.578125 100.792969 244.15625 100.902344 244.789062 100.902344 C 245.417969 100.902344 245.980469 100.824219 246.472656 100.664062 C 246.96875 100.507812 247.382812 100.332031 247.714844 100.132812 C 248.109375 99.917969 248.457031 99.660156 248.75 99.363281 L 251.855469 104.835938 C 251.324219 105.269531 250.691406 105.652344 249.964844 105.988281 C 249.332031 106.261719 248.574219 106.519531 247.6875 106.757812 C 246.800781 106.992188 245.785156 107.109375 244.640625 107.109375 C 243.105469 107.109375 241.683594 106.859375 240.382812 106.355469 C 239.082031 105.855469 237.957031 105.148438 237.011719 104.242188 C 236.066406 103.335938 235.328125 102.246094 234.796875 100.976562 C 234.261719 99.703125 233.996094 98.300781 233.996094 96.761719 Z M 252.59375 86.886719 L 259.160156 86.886719 L 259.160156 101.433594 L 264.597656 101.433594 L 264.597656 106.609375 L 252.59375 106.609375 Z M 273.707031 107.109375 C 272.464844 107.109375 271.339844 106.953125 270.335938 106.636719 C 269.328125 106.324219 268.472656 105.847656 267.761719 105.21875 C 267.054688 104.589844 266.507812 103.789062 266.121094 102.824219 C 265.738281 101.859375 265.546875 100.722656 265.546875 99.421875 L 265.546875 86.886719 L 271.84375 86.886719 L 271.84375 99.15625 C 271.84375 99.847656 271.984375 100.375 272.269531 100.738281 C 272.558594 101.105469 273.035156 101.285156 273.707031 101.285156 C 274.375 101.285156 274.855469 101.105469 275.140625 100.738281 C 275.425781 100.375 275.566406 99.847656 275.566406 99.15625 L 275.566406 86.886719 L 281.894531 86.886719 L 281.894531 99.421875 C 281.894531 100.722656 281.703125 101.859375 281.320312 102.824219 C 280.933594 103.789062 280.382812 104.589844 279.664062 105.21875 C 278.945312 105.847656 278.082031 106.324219 277.074219 106.636719 C 276.070312 106.953125 274.949219 107.109375 273.707031 107.109375 Z M 283.875 86.886719 L 291.59375 86.886719 C 292.578125 86.886719 293.480469 87 294.300781 87.226562 C 295.117188 87.453125 295.816406 87.789062 296.398438 88.234375 C 296.980469 88.675781 297.433594 89.226562 297.757812 89.886719 C 298.085938 90.546875 298.246094 91.324219 298.246094 92.210938 C 298.246094 92.839844 298.167969 93.378906 298.007812 93.820312 C 297.851562 94.265625 297.683594 94.632812 297.507812 94.929688 C 297.289062 95.285156 297.042969 95.578125 296.769531 95.816406 C 297.203125 96.09375 297.597656 96.449219 297.949219 96.882812 C 298.246094 97.253906 298.519531 97.730469 298.765625 98.300781 C 299.011719 98.871094 299.132812 99.570312 299.132812 100.398438 C 299.132812 101.34375 298.964844 102.203125 298.628906 102.972656 C 298.296875 103.742188 297.816406 104.394531 297.195312 104.9375 C 296.574219 105.480469 295.816406 105.894531 294.917969 106.179688 C 294.023438 106.464844 293.023438 106.609375 291.917969 106.609375 L 283.875 106.609375 Z M 290.675781 101.964844 C 292.175781 101.964844 292.925781 101.394531 292.925781 100.25 C 292.925781 99.109375 292.175781 98.535156 290.675781 98.535156 L 289.96875 98.535156 L 289.96875 101.964844 Z M 292.15625 92.890625 C 292.15625 91.984375 291.664062 91.53125 290.675781 91.53125 L 289.96875 91.53125 L 289.96875 94.25 L 290.675781 94.25 C 291.664062 94.25 292.15625 93.796875 292.15625 92.890625 "/>
<path style=" stroke:none;fill-rule:nonzero;fill:rgb(0%,0%,1.568604%);fill-opacity:1;" d="M 67 84.210938 C 67 82.304688 67.359375 80.511719 68.082031 78.835938 C 68.804688 77.160156 69.78125 75.695312 71.015625 74.4375 C 72.246094 73.179688 73.703125 72.191406 75.378906 71.46875 C 77.054688 70.75 78.84375 70.386719 80.753906 70.386719 C 82.660156 70.386719 84.453125 70.75 86.128906 71.46875 C 87.804688 72.191406 89.257812 73.179688 90.492188 74.4375 C 91.726562 75.695312 92.703125 77.160156 93.425781 78.835938 C 94.148438 80.511719 94.507812 82.304688 94.507812 84.210938 C 94.507812 86.121094 94.148438 87.921875 93.425781 89.621094 C 92.703125 91.320312 91.726562 92.800781 90.492188 94.054688 C 89.257812 95.3125 87.804688 96.300781 86.128906 97.023438 C 84.453125 97.746094 82.660156 98.105469 80.753906 98.105469 C 78.84375 98.105469 77.054688 97.746094 75.378906 97.023438 C 73.703125 96.300781 72.246094 95.3125 71.015625 94.054688 C 69.78125 92.800781 68.804688 91.320312 68.082031 89.621094 C 67.359375 87.921875 67 86.121094 67 84.210938 Z M 87.386719 84.210938 C 87.386719 82.351562 86.746094 80.769531 85.464844 79.464844 C 84.1875 78.160156 82.617188 77.507812 80.753906 77.507812 C 78.890625 77.507812 77.320312 78.160156 76.039062 79.464844 C 74.761719 80.769531 74.121094 82.351562 74.121094 84.210938 C 74.121094 86.121094 74.761719 87.726562 76.039062 89.03125 C 77.320312 90.332031 78.890625 90.984375 80.753906 90.984375 C 82.617188 90.984375 84.1875 90.332031 85.464844 89.03125 C 86.746094 87.726562 87.386719 86.121094 87.386719 84.210938 Z M 31.882812 60.824219 C 31.882812 58.914062 32.242188 57.121094 32.964844 55.445312 C 33.683594 53.769531 34.660156 52.304688 35.894531 51.046875 C 37.128906 49.792969 38.582031 48.800781 40.257812 48.082031 C 41.933594 47.359375 43.726562 47 45.636719 47 C 47.542969 47 49.335938 47.359375 51.011719 48.082031 C 52.6875 48.800781 54.140625 49.792969 55.375 51.046875 C 56.609375 52.304688 57.585938 53.769531 58.308594 55.445312 C 59.027344 57.121094 59.390625 58.914062 59.390625 60.824219 C 59.390625 62.730469 59.027344 64.523438 58.308594 66.199219 C 57.585938 67.875 56.609375 69.339844 55.375 70.597656 C 54.140625 71.855469 52.6875 72.84375 51.011719 73.566406 C 49.335938 74.285156 47.542969 74.648438 45.636719 74.648438 C 43.726562 74.648438 41.933594 74.285156 40.257812 73.566406 C 38.582031 72.84375 37.128906 71.855469 35.894531 70.597656 C 34.660156 69.339844 33.683594 67.875 32.964844 66.199219 C 32.242188 64.523438 31.882812 62.730469 31.882812 60.824219 Z M 52.269531 60.824219 C 52.269531 58.960938 51.628906 57.378906 50.347656 56.074219 C 49.066406 54.773438 47.496094 54.121094 45.636719 54.121094 C 43.773438 54.121094 42.203125 54.773438 40.921875 56.074219 C 39.640625 57.378906 39.003906 58.960938 39.003906 60.824219 C 39.003906 62.683594 39.640625 64.265625 40.921875 65.570312 C 42.203125 66.875 43.773438 67.527344 45.636719 67.527344 C 47.496094 67.527344 49.066406 66.875 50.347656 65.570312 C 51.628906 64.265625 52.269531 62.683594 52.269531 60.824219 Z M 74.46875 45.601562 L 80.335938 48.882812 L 51.5 99.503906 L 46.195312 96.5 Z M 74.46875 45.601562 "/>
</g>
</svg>
