<?xml version="1.0" encoding="UTF-8"?>
<svg xmlns="http://www.w3.org/2000/svg" xmlns:xlink="http://www.w3.org/1999/xlink" width="383.76pt" height="121.68pt" viewBox="0 0 383.76 121.68" version="1.1">
<defs>
<clipPath id="clip1">
  <path d="M 0 0 L 383.761719 0 L 383.761719 121.679688 L 0 121.679688 Z M 0 0 "/>
</clipPath>
<clipPath id="clip2">
  <path d="M 0 25 L 249 25 L 249 121.679688 L 0 121.679688 Z M 0 25 "/>
</clipPath>
<clipPath id="clip3">
  <path d="M 102 0 L 383.761719 0 L 383.761719 119 L 102 119 Z M 102 0 "/>
</clipPath>
</defs>
<g id="surface1">
<g clip-path="url(#clip1)" clip-rule="nonzero">
<rect x="0" y="0" width="383.76" height="121.68" style="fill:rgb(100%,100%,100%);fill-opacity:1;stroke:none;"/>
</g>
<path style=" stroke:none;fill-rule:nonzero;fill:rgb(100%,100%,100%);fill-opacity:1;" d="M 178.867188 46.847656 C 180.609375 46.847656 182.027344 47.273438 183.117188 48.121094 C 184.210938 48.96875 184.867188 50.425781 185.085938 52.496094 L 182.5625 52.496094 C 182.410156 51.542969 182.054688 50.75 181.507813 50.121094 C 180.960938 49.488281 180.082031 49.175781 178.867188 49.175781 C 177.210938 49.175781 176.03125 49.980469 175.316406 51.597656 C 174.851563 52.648438 174.621094 53.945313 174.621094 55.480469 C 174.621094 57.035156 174.949219 58.335938 175.605469 59.394531 C 176.261719 60.453125 177.292969 60.984375 178.695313 60.984375 C 179.773438 60.984375 180.628906 60.65625 181.257813 59.996094 C 181.882813 59.335938 182.324219 58.433594 182.5625 57.289063 L 185.085938 57.289063 C 184.796875 59.339844 184.078125 60.839844 182.921875 61.785156 C 181.765625 62.734375 180.292969 63.207031 178.492188 63.207031 C 176.46875 63.207031 174.855469 62.46875 173.65625 60.992188 C 172.453125 59.511719 171.851563 57.667969 171.851563 55.457031 C 171.851563 52.742188 172.511719 50.628906 173.828125 49.113281 C 175.148438 47.601563 176.828125 46.847656 178.867188 46.847656 Z M 187.488281 41.480469 L 190.011719 41.480469 L 190.011719 49.175781 C 190.578125 48.433594 191.257813 47.867188 192.046875 47.480469 C 192.839844 47.089844 193.695313 46.890625 194.617188 46.890625 C 196.542969 46.890625 198.105469 47.554688 199.304688 48.878906 C 200.5 50.203125 201.097656 52.15625 201.097656 54.734375 C 201.097656 57.175781 200.507813 59.207031 199.324219 60.824219 C 198.140625 62.445313 196.5 63.253906 194.402344 63.253906 C 193.226563 63.253906 192.238281 62.96875 191.429688 62.402344 C 190.945313 62.058594 190.429688 61.523438 189.882813 60.785156 L 189.882813 62.761719 L 187.488281 62.761719 Z M 194.242188 60.957031 C 195.648438 60.957031 196.703125 60.398438 197.398438 59.28125 C 198.09375 58.164063 198.441406 56.6875 198.441406 54.859375 C 198.441406 53.234375 198.09375 51.890625 197.398438 50.820313 C 196.703125 49.75 195.671875 49.21875 194.3125 49.21875 C 193.128906 49.21875 192.09375 49.65625 191.203125 50.535156 C 190.3125 51.40625 189.867188 52.851563 189.867188 54.859375 C 189.867188 56.316406 190.050781 57.496094 190.414063 58.398438 C 191.097656 60.105469 192.375 60.957031 194.242188 60.957031 Z M 206.121094 58.644531 C 206.121094 59.398438 206.394531 59.992188 206.941406 60.417969 C 207.488281 60.851563 208.140625 61.070313 208.894531 61.070313 C 209.804688 61.070313 210.691406 60.859375 211.550781 60.433594 C 212.992188 59.730469 213.714844 58.582031 213.714844 56.984375 L 213.714844 54.890625 C 213.394531 55.09375 212.984375 55.265625 212.484375 55.398438 C 211.988281 55.53125 211.496094 55.628906 211.011719 55.683594 L 209.441406 55.886719 C 208.5 56.015625 207.789063 56.210938 207.316406 56.480469 C 206.519531 56.929688 206.121094 57.65625 206.121094 58.644531 Z M 212.414063 53.390625 C 213.007813 53.3125 213.414063 53.0625 213.613281 52.636719 C 213.726563 52.40625 213.785156 52.078125 213.785156 51.644531 C 213.785156 50.761719 213.472656 50.117188 212.839844 49.714844 C 212.210938 49.316406 211.308594 49.113281 210.128906 49.113281 C 208.773438 49.113281 207.8125 49.480469 207.246094 50.214844 C 206.925781 50.617188 206.71875 51.21875 206.625 52.015625 L 204.199219 52.015625 C 204.246094 50.109375 204.867188 48.785156 206.054688 48.039063 C 207.242188 47.296875 208.621094 46.921875 210.191406 46.921875 C 212.007813 46.921875 213.488281 47.265625 214.625 47.960938 C 215.75 48.65625 216.308594 49.730469 216.308594 51.195313 L 216.308594 60.105469 C 216.308594 60.375 216.363281 60.59375 216.476563 60.753906 C 216.589844 60.917969 216.824219 61 217.175781 61 C 217.289063 61 217.421875 60.992188 217.566406 60.976563 C 217.710938 60.960938 217.867188 60.941406 218.03125 60.910156 L 218.03125 62.835938 C 217.625 62.949219 217.320313 63.019531 217.109375 63.050781 C 216.898438 63.074219 216.605469 63.089844 216.242188 63.089844 C 215.34375 63.089844 214.695313 62.773438 214.289063 62.140625 C 214.078125 61.800781 213.929688 61.324219 213.839844 60.710938 C 213.3125 61.40625 212.554688 62.007813 211.566406 62.511719 C 210.574219 63.019531 209.480469 63.277344 208.28125 63.277344 C 206.847656 63.277344 205.679688 62.84375 204.769531 61.972656 C 203.859375 61.101563 203.40625 60.011719 203.40625 58.703125 C 203.40625 57.269531 203.851563 56.15625 204.75 55.367188 C 205.640625 54.578125 206.820313 54.09375 208.273438 53.910156 Z M 226.53125 46.847656 C 228.269531 46.847656 229.6875 47.273438 230.777344 48.121094 C 231.871094 48.96875 232.527344 50.425781 232.75 52.496094 L 230.226563 52.496094 C 230.074219 51.542969 229.71875 50.75 229.171875 50.121094 C 228.625 49.488281 227.742188 49.175781 226.53125 49.175781 C 224.875 49.175781 223.691406 49.980469 222.976563 51.597656 C 222.515625 52.648438 222.28125 53.945313 222.28125 55.480469 C 222.28125 57.035156 222.613281 58.335938 223.269531 59.394531 C 223.921875 60.453125 224.953125 60.984375 226.359375 60.984375 C 227.4375 60.984375 228.289063 60.65625 228.921875 59.996094 C 229.546875 59.335938 229.984375 58.433594 230.226563 57.289063 L 232.75 57.289063 C 232.457031 59.339844 231.738281 60.839844 230.585938 61.785156 C 229.429688 62.734375 227.953125 63.207031 226.15625 63.207031 C 224.128906 63.207031 222.519531 62.46875 221.316406 60.992188 C 220.113281 59.511719 219.511719 57.667969 219.511719 55.457031 C 219.511719 52.742188 220.171875 50.628906 221.488281 49.113281 C 222.808594 47.601563 224.492188 46.847656 226.53125 46.847656 Z M 235.292969 41.550781 L 237.789063 41.550781 L 237.789063 53.867188 L 244.457031 47.296875 L 247.78125 47.296875 L 241.859375 53.085938 L 248.113281 62.761719 L 244.792969 62.761719 L 239.96875 54.964844 L 237.789063 56.957031 L 237.789063 62.761719 L 235.292969 62.761719 Z M 235.292969 41.550781 "/>
<path style=" stroke:none;fill-rule:nonzero;fill:rgb(100%,100%,100%);fill-opacity:1;" d="M 258.089844 33.957031 C 258.089844 33.105469 258.300781 32.195313 258.714844 31.207031 C 259.132813 30.21875 259.789063 29.242188 260.691406 28.292969 C 261.589844 27.34375 262.734375 26.566406 264.132813 25.96875 C 265.53125 25.378906 267.152344 25.082031 269.007813 25.082031 C 270.417969 25.082031 271.699219 25.210938 272.847656 25.480469 C 273.996094 25.746094 275.046875 26.164063 275.984375 26.726563 C 276.921875 27.292969 277.792969 28.03125 278.582031 28.957031 C 279.285156 29.796875 279.886719 30.726563 280.382813 31.765625 C 280.878906 32.804688 281.253906 33.914063 281.5 35.089844 C 281.75 36.261719 281.875 37.519531 281.875 38.839844 C 281.875 40.984375 281.5625 42.910156 280.9375 44.605469 C 280.308594 46.300781 279.414063 47.753906 278.253906 48.96875 C 277.089844 50.171875 275.722656 51.089844 274.160156 51.726563 C 272.59375 52.351563 270.921875 52.667969 269.152344 52.667969 C 266.996094 52.667969 265.070313 52.242188 263.386719 51.378906 C 261.699219 50.511719 260.40625 49.453125 259.511719 48.183594 C 258.609375 46.917969 258.164063 45.71875 258.164063 44.585938 C 258.164063 43.972656 258.378906 43.425781 258.816406 42.953125 C 259.257813 42.476563 259.785156 42.238281 260.398438 42.238281 C 261.089844 42.238281 261.609375 42.40625 261.957031 42.734375 C 262.300781 43.066406 262.683594 43.625 263.113281 44.425781 C 263.816406 45.75 264.648438 46.738281 265.597656 47.394531 C 266.550781 48.046875 267.722656 48.375 269.113281 48.375 C 271.339844 48.375 273.109375 47.53125 274.417969 45.847656 C 275.738281 44.160156 276.394531 41.761719 276.394531 38.65625 C 276.394531 36.578125 276.101563 34.851563 275.523438 33.480469 C 274.941406 32.101563 274.113281 31.070313 273.046875 30.394531 C 271.976563 29.714844 270.730469 29.375 269.300781 29.375 C 267.746094 29.375 266.429688 29.757813 265.355469 30.527344 C 264.28125 31.300781 263.472656 32.429688 262.925781 33.925781 C 262.699219 34.628906 262.417969 35.199219 262.078125 35.640625 C 261.734375 36.082031 261.1875 36.308594 260.4375 36.308594 C 259.796875 36.308594 259.242188 36.082031 258.777344 35.636719 C 258.316406 35.1875 258.089844 34.628906 258.089844 33.957031 Z M 241.835938 25.535156 L 249.992188 25.535156 C 251.167969 25.535156 252.011719 25.796875 252.515625 26.324219 C 253.019531 26.851563 253.269531 27.695313 253.269531 28.84375 L 253.269531 48.90625 C 253.269531 50.078125 253.011719 50.921875 252.496094 51.4375 C 251.980469 51.953125 251.144531 52.214844 249.992188 52.214844 L 241.347656 52.214844 C 240.074219 52.214844 238.972656 52.136719 238.035156 51.980469 C 237.097656 51.824219 236.265625 51.519531 235.527344 51.066406 C 234.890625 50.695313 234.332031 50.214844 233.847656 49.636719 C 233.363281 49.058594 232.992188 48.425781 232.738281 47.730469 C 232.480469 47.027344 232.359375 46.296875 232.359375 45.519531 C 232.359375 42.847656 233.691406 40.890625 236.359375 39.65625 C 232.855469 38.542969 231.101563 36.367188 231.101563 33.144531 C 231.101563 31.648438 231.480469 30.304688 232.246094 29.113281 C 233.011719 27.914063 234.042969 27.03125 235.339844 26.460938 C 236.152344 26.117188 237.089844 25.882813 238.148438 25.746094 C 239.199219 25.601563 240.425781 25.535156 241.835938 25.535156 Z M 242.242188 37.382813 L 247.863281 37.382813 L 247.863281 29.589844 L 242.054688 29.589844 C 238.40625 29.589844 236.582031 30.90625 236.582031 33.542969 C 236.582031 34.890625 237.054688 35.867188 238 36.472656 C 238.949219 37.078125 240.359375 37.382813 242.242188 37.382813 Z M 247.863281 48.160156 L 247.863281 41.257813 L 242.910156 41.257813 C 241.5625 41.257813 240.527344 41.386719 239.792969 41.644531 C 239.054688 41.898438 238.496094 42.382813 238.109375 43.097656 C 237.804688 43.605469 237.652344 44.175781 237.652344 44.8125 C 237.652344 46.160156 238.128906 47.054688 239.089844 47.496094 C 240.046875 47.9375 241.507813 48.160156 243.476563 48.160156 Z M 210.777344 28.554688 L 212.050781 31.902344 L 222.898438 31.902344 L 224.171875 28.484375 C 224.671875 27.148438 225.097656 26.25 225.449219 25.785156 C 225.796875 25.316406 226.375 25.082031 227.175781 25.082031 C 227.855469 25.082031 228.457031 25.328125 228.980469 25.828125 C 229.5 26.324219 229.761719 26.890625 229.761719 27.515625 C 229.761719 27.882813 229.699219 28.253906 229.582031 28.648438 C 229.457031 29.039063 229.257813 29.578125 228.980469 30.269531 L 222.152344 47.59375 C 221.957031 48.089844 221.722656 48.6875 221.449219 49.382813 C 221.183594 50.085938 220.890625 50.664063 220.578125 51.121094 C 220.269531 51.582031 219.867188 51.953125 219.363281 52.242188 C 218.859375 52.527344 218.230469 52.667969 217.492188 52.667969 C 216.742188 52.667969 216.113281 52.527344 215.609375 52.242188 C 215.105469 51.953125 214.695313 51.589844 214.394531 51.140625 C 214.082031 50.695313 213.820313 50.210938 213.609375 49.695313 C 213.390625 49.179688 213.125 48.496094 212.796875 47.632813 L 205.824219 30.410156 C 205.28125 29.101563 205.007813 28.148438 205.007813 27.554688 C 205.007813 26.9375 205.265625 26.367188 205.78125 25.851563 C 206.296875 25.335938 206.917969 25.082031 207.644531 25.082031 C 208.074219 25.082031 208.433594 25.15625 208.738281 25.304688 C 209.042969 25.460938 209.296875 25.664063 209.503906 25.925781 C 209.707031 26.1875 209.933594 26.585938 210.167969 27.125 C 210.40625 27.664063 210.609375 28.144531 210.777344 28.554688 Z M 221.480469 35.964844 L 213.511719 35.964844 L 217.53125 46.972656 Z M 179.238281 33.957031 C 179.238281 33.105469 179.449219 32.195313 179.867188 31.207031 C 180.28125 30.21875 180.941406 29.242188 181.839844 28.292969 C 182.742188 27.34375 183.886719 26.566406 185.28125 25.96875 C 186.679688 25.378906 188.300781 25.082031 190.160156 25.082031 C 191.570313 25.082031 192.847656 25.210938 193.996094 25.480469 C 195.148438 25.746094 196.195313 26.164063 197.136719 26.726563 C 198.074219 27.292969 198.941406 28.03125 199.730469 28.957031 C 200.433594 29.796875 201.035156 30.726563 201.535156 31.765625 C 202.03125 32.804688 202.402344 33.914063 202.652344 35.089844 C 202.898438 36.261719 203.023438 37.519531 203.023438 38.839844 C 203.023438 40.984375 202.714844 42.910156 202.085938 44.605469 C 201.457031 46.300781 200.566406 47.753906 199.402344 48.96875 C 198.242188 50.171875 196.875 51.089844 195.308594 51.726563 C 193.742188 52.351563 192.074219 52.667969 190.300781 52.667969 C 188.144531 52.667969 186.21875 52.242188 184.535156 51.378906 C 182.847656 50.511719 181.554688 49.453125 180.660156 48.183594 C 179.761719 46.917969 179.3125 45.71875 179.3125 44.585938 C 179.3125 43.972656 179.53125 43.425781 179.964844 42.953125 C 180.40625 42.476563 180.933594 42.238281 181.550781 42.238281 C 182.238281 42.238281 182.761719 42.40625 183.109375 42.734375 C 183.449219 43.066406 183.835938 43.625 184.261719 44.425781 C 184.964844 45.75 185.796875 46.738281 186.75 47.394531 C 187.699219 48.046875 188.875 48.375 190.265625 48.375 C 192.488281 48.375 194.257813 47.53125 195.570313 45.847656 C 196.886719 44.160156 197.546875 41.761719 197.546875 38.65625 C 197.546875 36.578125 197.253906 34.851563 196.675781 33.480469 C 196.089844 32.101563 195.265625 31.070313 194.195313 30.394531 C 193.128906 29.714844 191.878906 29.375 190.449219 29.375 C 188.898438 29.375 187.582031 29.757813 186.507813 30.527344 C 185.433594 31.300781 184.625 32.429688 184.078125 33.925781 C 183.847656 34.628906 183.566406 35.199219 183.226563 35.640625 C 182.882813 36.082031 182.339844 36.308594 181.585938 36.308594 C 180.945313 36.308594 180.394531 36.082031 179.925781 35.636719 C 179.46875 35.1875 179.238281 34.628906 179.238281 33.957031 Z M 168.9375 49.394531 L 168.9375 40.039063 L 158.328125 51.105469 C 157.820313 51.636719 157.382813 52.035156 157.03125 52.289063 C 156.671875 52.546875 156.191406 52.667969 155.601563 52.667969 C 154.824219 52.667969 154.199219 52.441406 153.71875 51.984375 C 153.242188 51.53125 153 50.972656 153 50.320313 C 153 49.53125 153.402344 48.75 154.214844 47.972656 L 160.789063 41.75 L 153.214844 30.902344 C 152.683594 30.152344 152.285156 29.492188 152.015625 28.925781 C 151.75 28.359375 151.613281 27.8125 151.613281 27.28125 C 151.613281 26.691406 151.847656 26.175781 152.316406 25.734375 C 152.78125 25.296875 153.414063 25.082031 154.214844 25.082031 C 154.96875 25.082031 155.582031 25.242188 156.054688 25.558594 C 156.527344 25.882813 156.925781 26.3125 157.253906 26.84375 C 157.582031 27.378906 157.875 27.863281 158.128906 28.300781 L 164.515625 38.125 L 168.9375 33.890625 L 168.9375 28.375 C 168.9375 27.261719 169.195313 26.429688 169.703125 25.890625 C 170.210938 25.347656 170.871094 25.082031 171.671875 25.082031 C 172.132813 25.082031 172.574219 25.199219 173 25.441406 C 173.425781 25.683594 173.753906 26.011719 173.984375 26.429688 C 174.152344 26.769531 174.257813 27.164063 174.292969 27.609375 C 174.324219 28.058594 174.34375 28.703125 174.34375 29.554688 L 174.34375 49.394531 C 174.34375 50.484375 174.105469 51.300781 173.628906 51.847656 C 173.152344 52.394531 172.5 52.667969 171.671875 52.667969 C 170.859375 52.667969 170.199219 52.402344 169.695313 51.863281 C 169.195313 51.320313 168.9375 50.496094 168.9375 49.394531 "/>
<g clip-path="url(#clip2)" clip-rule="nonzero">
<path style=" stroke:none;fill-rule:nonzero;fill:rgb(97.254944%,100%,7.450867%);fill-opacity:1;" d="M 56.113281 25.519531 L 241.949219 25.519531 C 247.550781 25.519531 250.59375 30.394531 246.984375 33.585938 L 207.671875 68.324219 C 204.183594 71.410156 204.183594 75.917969 207.671875 79 L 246.984375 113.738281 C 250.59375 116.929688 247.550781 121.804688 241.949219 121.804688 L 56.113281 121.804688 C 52.832031 121.804688 49.722656 120.726563 47.609375 118.859375 L 2.496094 79 C -0.992188 75.917969 -0.992188 71.410156 2.496094 68.324219 L 47.609375 28.464844 C 49.722656 26.597656 52.832031 25.519531 56.113281 25.519531 "/>
</g>
<g clip-path="url(#clip3)" clip-rule="nonzero">
<path style=" stroke:none;fill-rule:nonzero;fill:rgb(97.254944%,100%,7.450867%);fill-opacity:1;" d="M 102.929688 5.699219 C 138.566406 3.371094 174.207031 2.160156 209.84375 1.289063 C 227.664063 0.863281 245.480469 0.578125 263.300781 0.375 L 290.027344 0.152344 L 296.710938 0.125 L 300.050781 0.117188 L 301.789063 0.113281 C 302.722656 0.121094 303.65625 0.15625 304.578125 0.246094 C 308.277344 0.566406 311.832031 1.550781 314.777344 3.042969 C 315.511719 3.417969 316.21875 3.820313 316.867188 4.253906 C 317.203125 4.46875 317.507813 4.699219 317.820313 4.925781 L 318.414063 5.378906 L 320.578125 7.035156 L 337.726563 20.371094 L 354.695313 33.808594 C 360.300781 38.316406 365.949219 42.800781 371.484375 47.34375 L 375.65625 50.742188 L 377.738281 52.445313 L 378.78125 53.292969 C 379.15625 53.601563 379.390625 53.777344 379.992188 54.308594 C 384.226563 57.96875 385.046875 63.039063 382.230469 67.109375 C 381.550781 68.128906 380.65625 69.089844 379.582031 69.945313 C 378.976563 70.4375 378.675781 70.636719 378.289063 70.914063 L 377.160156 71.71875 L 372.636719 74.921875 L 363.570313 81.324219 C 357.507813 85.578125 351.394531 89.808594 345.242188 94.015625 C 332.847656 102.378906 320.496094 110.765625 307.539063 118.824219 C 317.554688 109.152344 328.175781 99.816406 338.753906 90.453125 C 344.085938 85.796875 349.457031 81.164063 354.882813 76.554688 L 363.042969 69.660156 L 367.136719 66.21875 L 368.160156 65.359375 C 368.488281 65.082031 368.921875 64.734375 368.980469 64.648438 C 369.285156 64.363281 369.507813 64.054688 369.664063 63.730469 C 370.332031 62.445313 369.824219 60.996094 368.511719 60.089844 L 359.828125 53.738281 C 353.878906 49.421875 348.039063 45.042969 342.15625 40.6875 L 324.671875 27.535156 L 307.363281 14.285156 L 305.21875 12.617188 L 304.734375 12.242188 C 304.667969 12.199219 304.621094 12.148438 304.550781 12.109375 C 304.429688 12.023438 304.292969 11.949219 304.15625 11.875 C 303.59375 11.585938 302.910156 11.382813 302.195313 11.316406 C 302.019531 11.292969 301.835938 11.292969 301.65625 11.285156 L 300.050781 11.277344 L 296.710938 11.269531 L 290.027344 11.246094 L 263.300781 11.019531 C 245.480469 10.816406 227.664063 10.53125 209.84375 10.105469 C 174.207031 9.234375 138.566406 8.023438 102.929688 5.699219 "/>
</g>
<path style=" stroke:none;fill-rule:nonzero;fill:rgb(0%,0%,0%);fill-opacity:0.83;" d="M 296.371094 110.386719 L 89.644531 110.386719 C 84.847656 110.386719 82.238281 106.574219 85.332031 104.082031 L 130.609375 67.597656 C 134.4375 64.515625 134.4375 60.003906 130.609375 56.921875 L 85.332031 20.4375 C 82.238281 17.945313 84.847656 14.136719 89.644531 14.136719 L 296.371094 14.136719 C 299.964844 14.136719 303.375 15.210938 305.691406 17.078125 L 355.136719 56.921875 C 358.964844 60.003906 358.964844 64.515625 355.136719 67.597656 L 305.691406 107.441406 C 303.375 109.308594 299.964844 110.386719 296.371094 110.386719 "/>
<path style=" stroke:none;fill-rule:nonzero;fill:rgb(100%,100%,100%);fill-opacity:1;" d="M 299.796875 61.519531 C 299.796875 64.480469 299.28125 67.15625 298.242188 69.542969 C 297.207031 71.929688 295.800781 73.976563 294.023438 75.679688 C 292.246094 77.382813 290.171875 78.6875 287.800781 79.59375 C 285.433594 80.503906 282.914063 80.957031 280.25 80.957031 C 278.140625 80.957031 276.261719 80.753906 274.613281 80.34375 C 272.964844 79.9375 271.550781 79.476563 270.363281 78.957031 C 268.996094 78.363281 267.808594 77.714844 266.8125 77.011719 L 272.640625 66.738281 C 273.234375 67.183594 273.882813 67.609375 274.585938 68.015625 C 275.214844 68.3125 275.964844 68.597656 276.835938 68.878906 C 277.703125 69.15625 278.695313 69.292969 279.804688 69.292969 C 280.953125 69.292969 282.007813 69.089844 282.972656 68.683594 C 283.933594 68.273438 284.777344 67.71875 285.496094 67.015625 C 286.21875 66.3125 286.785156 65.488281 287.191406 64.546875 C 287.597656 63.601563 287.800781 62.59375 287.800781 61.519531 C 287.800781 60.445313 287.589844 59.4375 287.164063 58.492188 C 286.738281 57.546875 286.15625 56.726563 285.414063 56.019531 C 284.675781 55.316406 283.804688 54.761719 282.804688 54.355469 C 281.804688 53.949219 280.714844 53.742188 279.527344 53.742188 C 278.34375 53.742188 277.289063 53.890625 276.363281 54.1875 C 275.4375 54.484375 274.660156 54.816406 274.03125 55.1875 C 273.289063 55.59375 272.640625 56.078125 272.085938 56.632813 L 266.253906 46.359375 C 267.253906 45.542969 268.441406 44.820313 269.808594 44.191406 C 270.996094 43.675781 272.417969 43.191406 274.085938 42.75 C 275.753906 42.304688 277.660156 42.082031 279.804688 42.082031 C 282.691406 42.082031 285.359375 42.554688 287.800781 43.5 C 290.246094 44.441406 292.355469 45.765625 294.132813 47.46875 C 295.910156 49.171875 297.296875 51.21875 298.296875 53.605469 C 299.296875 55.992188 299.796875 58.632813 299.796875 61.519531 Z M 264.867188 80.066406 L 250.371094 80.066406 C 248.523438 80.066406 246.828125 79.855469 245.292969 79.429688 C 243.753906 79.003906 242.441406 78.375 241.347656 77.539063 C 240.257813 76.707031 239.40625 75.671875 238.792969 74.429688 C 238.183594 73.191406 237.878906 71.738281 237.878906 70.070313 C 237.878906 68.886719 238.027344 67.878906 238.324219 67.042969 C 238.617188 66.210938 238.933594 65.515625 239.265625 64.960938 C 239.671875 64.296875 240.136719 63.742188 240.65625 63.296875 C 239.839844 62.777344 239.101563 62.109375 238.433594 61.296875 C 237.878906 60.59375 237.367188 59.703125 236.90625 58.632813 C 236.445313 57.558594 236.210938 56.242188 236.210938 54.6875 C 236.210938 52.910156 236.527344 51.300781 237.15625 49.855469 C 237.785156 48.414063 238.683594 47.183594 239.847656 46.164063 C 241.015625 45.144531 242.441406 44.367188 244.125 43.832031 C 245.808594 43.296875 247.6875 43.027344 249.761719 43.027344 L 264.867188 43.027344 Z M 252.09375 51.746094 C 249.28125 51.746094 247.875 52.820313 247.875 54.964844 C 247.875 57.113281 249.28125 58.1875 252.09375 58.1875 L 253.425781 58.1875 L 253.425781 51.746094 Z M 249.316406 68.792969 C 249.316406 70.496094 250.242188 71.347656 252.09375 71.347656 L 253.425781 71.347656 L 253.425781 66.238281 L 252.09375 66.238281 C 250.242188 66.238281 249.316406 67.089844 249.316406 68.792969 Z M 222.996094 80.066406 L 214.109375 80.066406 L 200.058594 43.027344 L 211.722656 43.027344 L 212.945313 46.359375 L 224.160156 46.359375 L 225.382813 43.027344 L 237.046875 43.027344 Z M 216.054688 54.523438 L 218.550781 61.019531 L 221.050781 54.523438 Z M 202.558594 61.519531 C 202.558594 64.480469 202.039063 67.15625 201.003906 69.542969 C 199.96875 71.929688 198.5625 73.976563 196.785156 75.679688 C 195.007813 77.382813 192.933594 78.6875 190.5625 79.59375 C 188.195313 80.503906 185.675781 80.957031 183.011719 80.957031 C 180.902344 80.957031 179.023438 80.753906 177.375 80.34375 C 175.726563 79.9375 174.3125 79.476563 173.125 78.957031 C 171.757813 78.363281 170.570313 77.714844 169.570313 77.011719 L 175.402344 66.738281 C 175.996094 67.183594 176.644531 67.609375 177.347656 68.015625 C 177.976563 68.3125 178.726563 68.597656 179.597656 68.878906 C 180.464844 69.15625 181.457031 69.292969 182.566406 69.292969 C 183.714844 69.292969 184.769531 69.089844 185.734375 68.683594 C 186.695313 68.273438 187.539063 67.71875 188.257813 67.015625 C 188.980469 66.3125 189.546875 65.488281 189.953125 64.546875 C 190.359375 63.601563 190.5625 62.59375 190.5625 61.519531 C 190.5625 60.445313 190.351563 59.4375 189.925781 58.492188 C 189.5 57.546875 188.917969 56.726563 188.175781 56.019531 C 187.433594 55.316406 186.566406 54.761719 185.566406 54.355469 C 184.566406 53.949219 183.472656 53.742188 182.289063 53.742188 C 181.105469 53.742188 180.050781 53.890625 179.125 54.1875 C 178.199219 54.484375 177.421875 54.816406 176.792969 55.1875 C 176.050781 55.59375 175.402344 56.078125 174.847656 56.632813 L 169.015625 46.359375 C 170.015625 45.542969 171.203125 44.820313 172.570313 44.191406 C 173.753906 43.675781 175.179688 43.191406 176.847656 42.75 C 178.511719 42.304688 180.417969 42.082031 182.566406 42.082031 C 185.453125 42.082031 188.121094 42.554688 190.5625 43.5 C 193.007813 44.441406 195.117188 45.765625 196.894531 47.46875 C 198.671875 49.171875 200.058594 51.21875 201.058594 53.605469 C 202.058594 55.992188 202.558594 58.632813 202.558594 61.519531 Z M 167.628906 80.066406 L 155.632813 80.066406 L 155.632813 71.515625 L 148.636719 80.066406 L 134.140625 80.066406 L 147.191406 63.128906 L 133.476563 43.027344 L 147.746094 43.027344 L 155.632813 54.464844 L 155.632813 43.027344 L 167.628906 43.027344 Z M 167.628906 80.066406 "/>
<path style=" stroke:none;fill-rule:nonzero;fill:rgb(97.254944%,100%,7.450867%);fill-opacity:1;" d="M 233.515625 96.761719 C 233.515625 95.183594 233.792969 93.761719 234.34375 92.488281 C 234.894531 91.21875 235.644531 90.128906 236.589844 89.222656 C 237.539063 88.316406 238.640625 87.621094 239.902344 87.136719 C 241.164063 86.65625 242.503906 86.414063 243.921875 86.414063 C 245.046875 86.414063 246.046875 86.523438 246.925781 86.738281 C 247.800781 86.957031 248.554688 87.203125 249.1875 87.476563 C 249.914063 87.792969 250.546875 88.140625 251.078125 88.511719 L 247.972656 93.984375 C 247.660156 93.746094 247.3125 93.519531 246.941406 93.304688 C 246.605469 93.144531 246.207031 92.992188 245.742188 92.84375 C 245.277344 92.695313 244.75 92.625 244.160156 92.625 C 243.550781 92.625 242.988281 92.730469 242.476563 92.949219 C 241.960938 93.164063 241.515625 93.460938 241.128906 93.835938 C 240.746094 94.210938 240.445313 94.648438 240.226563 95.152344 C 240.011719 95.652344 239.902344 96.191406 239.902344 96.761719 C 239.902344 97.335938 240.015625 97.871094 240.242188 98.375 C 240.46875 98.875 240.78125 99.316406 241.175781 99.691406 C 241.566406 100.0625 242.03125 100.359375 242.5625 100.578125 C 243.097656 100.792969 243.675781 100.902344 244.308594 100.902344 C 244.9375 100.902344 245.5 100.824219 245.992188 100.664063 C 246.484375 100.507813 246.898438 100.328125 247.234375 100.132813 C 247.628906 99.917969 247.972656 99.660156 248.269531 99.363281 L 251.375 104.835938 C 250.84375 105.269531 250.210938 105.652344 249.484375 105.988281 C 248.851563 106.261719 248.09375 106.519531 247.207031 106.757813 C 246.320313 106.992188 245.304688 107.109375 244.160156 107.109375 C 242.621094 107.109375 241.203125 106.859375 239.902344 106.355469 C 238.601563 105.855469 237.476563 105.148438 236.53125 104.242188 C 235.585938 103.335938 234.847656 102.246094 234.3125 100.976563 C 233.78125 99.703125 233.515625 98.300781 233.515625 96.761719 Z M 252.113281 86.886719 L 258.679688 86.886719 L 258.679688 101.433594 L 264.117188 101.433594 L 264.117188 106.609375 L 252.113281 106.609375 Z M 273.226563 107.109375 C 271.984375 107.109375 270.859375 106.953125 269.855469 106.636719 C 268.847656 106.324219 267.992188 105.847656 267.28125 105.21875 C 266.570313 104.585938 266.023438 103.789063 265.640625 102.824219 C 265.257813 101.859375 265.0625 100.722656 265.0625 99.421875 L 265.0625 86.886719 L 271.363281 86.886719 L 271.363281 99.15625 C 271.363281 99.847656 271.503906 100.375 271.789063 100.738281 C 272.078125 101.105469 272.554688 101.285156 273.226563 101.285156 C 273.894531 101.285156 274.371094 101.105469 274.660156 100.738281 C 274.945313 100.375 275.085938 99.847656 275.085938 99.15625 L 275.085938 86.886719 L 281.414063 86.886719 L 281.414063 99.421875 C 281.414063 100.722656 281.222656 101.859375 280.839844 102.824219 C 280.453125 103.789063 279.902344 104.585938 279.183594 105.21875 C 278.464844 105.847656 277.601563 106.324219 276.59375 106.636719 C 275.589844 106.953125 274.464844 107.109375 273.226563 107.109375 Z M 283.394531 86.886719 L 291.113281 86.886719 C 292.097656 86.886719 293 87 293.820313 87.226563 C 294.636719 87.453125 295.335938 87.789063 295.917969 88.230469 C 296.5 88.675781 296.953125 89.226563 297.277344 89.886719 C 297.601563 90.546875 297.765625 91.320313 297.765625 92.210938 C 297.765625 92.839844 297.6875 93.378906 297.527344 93.820313 C 297.371094 94.265625 297.203125 94.632813 297.027344 94.929688 C 296.808594 95.285156 296.5625 95.578125 296.289063 95.816406 C 296.722656 96.09375 297.113281 96.445313 297.46875 96.878906 C 297.765625 97.253906 298.035156 97.726563 298.28125 98.300781 C 298.53125 98.871094 298.652344 99.570313 298.652344 100.398438 C 298.652344 101.34375 298.484375 102.203125 298.148438 102.972656 C 297.816406 103.738281 297.335938 104.394531 296.714844 104.9375 C 296.09375 105.480469 295.335938 105.894531 294.4375 106.179688 C 293.542969 106.464844 292.542969 106.609375 291.4375 106.609375 L 283.394531 106.609375 Z M 290.195313 101.964844 C 291.695313 101.964844 292.441406 101.394531 292.441406 100.25 C 292.441406 99.109375 291.695313 98.535156 290.195313 98.535156 L 289.488281 98.535156 L 289.488281 101.964844 Z M 291.675781 92.890625 C 291.675781 91.984375 291.183594 91.53125 290.195313 91.53125 L 289.488281 91.53125 L 289.488281 94.25 L 290.195313 94.25 C 291.183594 94.25 291.675781 93.796875 291.675781 92.890625 "/>
<path style=" stroke:none;fill-rule:nonzero;fill:rgb(0%,0%,1.568604%);fill-opacity:1;" d="M 71.320313 81.8125 C 71.320313 79.902344 71.679688 78.109375 72.402344 76.433594 C 73.121094 74.761719 74.101563 73.292969 75.332031 72.035156 C 76.566406 70.78125 78.019531 69.792969 79.695313 69.070313 C 81.371094 68.347656 83.164063 67.988281 85.074219 67.988281 C 86.980469 67.988281 88.773438 68.347656 90.449219 69.070313 C 92.125 69.792969 93.578125 70.78125 94.8125 72.035156 C 96.046875 73.292969 97.023438 74.761719 97.746094 76.433594 C 98.464844 78.109375 98.828125 79.902344 98.828125 81.8125 C 98.828125 83.71875 98.464844 85.523438 97.746094 87.222656 C 97.023438 88.921875 96.046875 90.398438 94.8125 91.65625 C 93.578125 92.914063 92.125 93.902344 90.449219 94.621094 C 88.773438 95.34375 86.980469 95.703125 85.074219 95.703125 C 83.164063 95.703125 81.371094 95.34375 79.695313 94.621094 C 78.019531 93.902344 76.566406 92.914063 75.332031 91.65625 C 74.101563 90.398438 73.121094 88.921875 72.402344 87.222656 C 71.679688 85.523438 71.320313 83.71875 71.320313 81.8125 Z M 91.707031 81.8125 C 91.707031 79.949219 91.066406 78.367188 89.785156 77.0625 C 88.503906 75.761719 86.933594 75.109375 85.074219 75.109375 C 83.210938 75.109375 81.640625 75.761719 80.359375 77.0625 C 79.082031 78.367188 78.441406 79.949219 78.441406 81.8125 C 78.441406 83.71875 79.082031 85.324219 80.359375 86.628906 C 81.640625 87.933594 83.210938 88.582031 85.074219 88.582031 C 86.933594 88.582031 88.503906 87.933594 89.785156 86.628906 C 91.066406 85.324219 91.707031 83.71875 91.707031 81.8125 Z M 36.199219 58.421875 C 36.199219 56.515625 36.5625 54.722656 37.28125 53.046875 C 38.003906 51.371094 38.980469 49.90625 40.214844 48.648438 C 41.449219 47.390625 42.902344 46.402344 44.578125 45.679688 C 46.253906 44.960938 48.046875 44.597656 49.953125 44.597656 C 51.863281 44.597656 53.65625 44.960938 55.332031 45.679688 C 57.007813 46.402344 58.460938 47.390625 59.695313 48.648438 C 60.925781 49.90625 61.90625 51.371094 62.625 53.046875 C 63.347656 54.722656 63.707031 56.515625 63.707031 58.421875 C 63.707031 60.332031 63.347656 62.121094 62.625 63.796875 C 61.90625 65.472656 60.925781 66.941406 59.695313 68.195313 C 58.460938 69.453125 57.007813 70.441406 55.332031 71.164063 C 53.65625 71.886719 51.863281 72.246094 49.953125 72.246094 C 48.046875 72.246094 46.253906 71.886719 44.578125 71.164063 C 42.902344 70.441406 41.449219 69.453125 40.214844 68.195313 C 38.980469 66.941406 38.003906 65.472656 37.28125 63.796875 C 36.5625 62.121094 36.199219 60.332031 36.199219 58.421875 Z M 56.585938 58.421875 C 56.585938 56.5625 55.949219 54.976563 54.667969 53.675781 C 53.386719 52.371094 51.816406 51.71875 49.953125 51.71875 C 48.09375 51.71875 46.523438 52.371094 45.242188 53.675781 C 43.960938 54.976563 43.320313 56.5625 43.320313 58.421875 C 43.320313 60.285156 43.960938 61.867188 45.242188 63.171875 C 46.523438 64.472656 48.09375 65.125 49.953125 65.125 C 51.816406 65.125 53.386719 64.472656 54.667969 63.171875 C 55.949219 61.867188 56.585938 60.285156 56.585938 58.421875 Z M 78.789063 43.203125 L 84.652344 46.484375 L 55.820313 97.101563 L 50.511719 94.097656 Z M 78.789063 43.203125 "/>
</g>
</svg>
