<?xml version="1.0" encoding="iso-8859-1"?>
<!-- Generator: Adobe Illustrator 19.0.0, SVG Export Plug-In . SVG Version: 6.00 Build 0)  -->
<svg version="1.1" id="Capa_1" xmlns="http://www.w3.org/2000/svg" xmlns:xlink="http://www.w3.org/1999/xlink" x="0px" y="0px"
	 viewBox="0 0 468.293 468.293" style="enable-background:new 0 0 468.293 468.293;" xml:space="preserve">
<path style="fill:#FCD462;" d="M326.65,0H90.537C80.191,0,71.805,8.386,71.805,18.732v430.829c0,10.345,8.386,18.732,18.732,18.732
	h287.219c10.345,0,18.732-8.386,18.732-18.732V69.838C369.215,42.564,353.923,27.273,326.65,0z"/>
<path style="fill:#F6C358;" d="M340.287,254.306V404.16c0,6.931-5.557,12.488-12.488,12.488H140.482
	c-6.869,0-12.488-5.557-12.488-12.488V254.306c0-6.868,5.619-12.488,12.488-12.488h187.317
	C334.729,241.819,340.287,247.438,340.287,254.306z"/>
<g>
	<path style="fill:#DC8744;" d="M340.287,254.306v26.224H295.33v-38.712h32.468C334.729,241.819,340.287,247.438,340.287,254.306z"
		/>
	<rect x="260.433" y="303.017" style="fill:#DC8744;" width="79.884" height="37.463"/>
	<rect x="237.943" y="241.826" style="fill:#DC8744;" width="44.931" height="38.687"/>
	<rect x="180.524" y="241.826" style="fill:#DC8744;" width="44.931" height="38.687"/>
	<rect x="242.825" y="378.006" style="fill:#DC8744;" width="44.931" height="38.687"/>
	<rect x="185.444" y="378.006" style="fill:#DC8744;" width="44.931" height="38.687"/>
	<path style="fill:#DC8744;" d="M172.95,377.998v38.649h-32.468c-6.869,0-12.488-5.557-12.488-12.488v-26.162H172.95z"/>
	<rect x="128" y="318.064" style="fill:#DC8744;" width="79.884" height="37.463"/>
</g>
<g>
	<path style="fill:#E56353;" d="M181.722,79.55c-2.878,0-5.238,0.587-7.08,1.76c-1.848,1.173-2.769,2.947-2.769,5.327
		c0,2.374,0.921,4.188,2.769,5.443c1.842,1.262,5.764,2.612,11.773,4.065c6.002,1.453,10.531,3.492,13.58,6.118
		c3.042,2.626,4.563,6.5,4.563,11.609c0,5.116-1.923,9.263-5.784,12.448c-3.854,3.185-8.908,4.775-15.17,4.775
		c-9.16,0-17.291-3.151-24.384-9.467l6.2-7.462c5.92,5.143,12.066,7.714,18.437,7.714c3.185,0,5.716-0.689,7.585-2.053
		c1.876-1.371,2.81-3.185,2.81-5.45s-0.88-4.024-2.64-5.279c-1.76-1.262-4.795-2.401-9.092-3.438
		c-4.304-1.037-7.578-1.985-9.808-2.851c-2.237-0.866-4.222-1.998-5.955-3.397c-3.465-2.626-5.191-6.643-5.191-12.066
		c0-5.423,1.964-9.597,5.907-12.53c3.936-2.933,8.813-4.399,14.624-4.399c3.745,0,7.462,0.614,11.145,1.842
		c3.69,1.228,6.875,2.96,9.556,5.197l-5.279,7.462c-1.732-1.569-4.079-2.851-7.039-3.861C187.519,80.055,184.6,79.55,181.722,79.55z
		"/>
	<path style="fill:#E56353;" d="M216.794,71.843h9.89v58.584h-9.89V71.843z"/>
	<path style="fill:#E56353;" d="M252.836,130.427h-9.89V71.843h15.422l17.686,36.792l17.68-36.792h15.34v58.584h-9.89V84.666
		l-20.449,40.645h-5.532l-20.367-40.645V130.427z"/>
</g>
<g>
</g>
<g>
</g>
<g>
</g>
<g>
</g>
<g>
</g>
<g>
</g>
<g>
</g>
<g>
</g>
<g>
</g>
<g>
</g>
<g>
</g>
<g>
</g>
<g>
</g>
<g>
</g>
<g>
</g>
</svg>
